<svg width="67" height="69" viewBox="0 0 67 69" fill="none" xmlns="http://www.w3.org/2000/svg">
<path d="M50.9814 54.6668L53.1471 52.5156C63.1667 52.8429 63.3207 52.4915 63.761 51.4617L66.5138 44.7603L66.7183 44.125L66.4945 43.5692C66.3766 43.2756 66.0133 42.3997 59.757 36.4346V33.2969C66.9758 26.3428 66.8218 25.9867 66.4103 24.9689L63.6696 18.1977C63.2581 17.1822 63.1017 16.7852 53.1543 17.0571L50.9886 14.8193C51.2122 11.523 51.0985 8.21245 50.6494 4.93923L50.3702 4.30639L43.2141 1.17826C42.1601 0.697011 41.7896 0.523761 35.0328 7.88207L31.9961 7.83636C25.0396 0.410668 24.71 0.545417 23.6681 0.966511L17.0148 3.6567C15.9729 4.07779 15.6047 4.22698 16.009 14.3332L13.8602 16.4748C3.84539 16.1475 3.69139 16.5037 3.25586 17.5287L0.498301 24.2325L0.281738 24.875L0.507926 25.4333C0.625832 25.722 0.974739 26.5883 7.24543 32.5606V35.6887C0.0266765 42.6428 0.183082 42.9989 0.596957 44.0191L3.33527 50.7975C3.75396 51.8346 3.90315 52.2028 13.8482 51.9429L16.0138 54.1928C15.7893 57.484 15.8998 60.7895 16.3435 64.0584L16.6226 64.696L23.8245 67.8434C24.8712 68.2814 25.2346 68.4378 31.9721 61.1059L35.0087 61.1444C41.9748 68.5797 42.331 68.4353 43.3488 68.0239L49.9876 65.3409C51.0368 64.9246 51.4025 64.7779 50.9814 54.6668ZM22.4481 38.9684C21.6085 36.774 21.4356 34.3806 21.9512 32.0883C22.4668 29.7961 23.6479 27.7071 25.3463 26.0836C27.0447 24.4601 29.1847 23.3744 31.4979 22.9626C33.811 22.5509 36.1943 22.8314 38.3486 23.7691C40.5029 24.7068 42.3323 26.2599 43.6072 28.2334C44.8821 30.2069 45.5458 32.513 45.515 34.8624C45.4841 37.2117 44.7602 39.4996 43.4339 41.439C42.1076 43.3784 40.238 44.8828 38.0599 45.7637C35.088 46.9258 31.7767 46.8633 28.8508 45.5897C25.9249 44.3162 23.6227 41.9354 22.4481 38.9684Z" fill="#18C1A8"/>
</svg>
