<svg width="77" height="77" viewBox="0 0 77 77" fill="none" xmlns="http://www.w3.org/2000/svg">
<path d="M55.9814 58.6668L58.1471 56.5156C68.1667 56.8429 68.3207 56.4915 68.761 55.4617L71.5138 48.7603L71.7183 48.125L71.4945 47.5692C71.3766 47.2756 71.0133 46.3997 64.757 40.4346V37.2969C71.9758 30.3428 71.8218 29.9867 71.4103 28.9689L68.6696 22.1977C68.2581 21.1822 68.1017 20.7852 58.1543 21.0571L55.9886 18.8193C56.2122 15.523 56.0985 12.2124 55.6494 8.93923L55.3702 8.30639L48.2141 5.17826C47.1601 4.69701 46.7895 4.52376 40.0328 11.8821L36.9961 11.8364C30.0396 4.41067 29.71 4.54542 28.6681 4.96651L22.0148 7.6567C20.9729 8.07779 20.6047 8.22698 21.009 18.3332L18.8602 20.4748C8.84539 20.1475 8.69139 20.5037 8.25586 21.5287L5.4983 28.2325L5.28174 28.875L5.50793 29.4333C5.62583 29.722 5.97474 30.5883 12.2454 36.5606V39.6887C5.02668 46.6428 5.18308 46.9989 5.59696 48.0191L8.33527 54.7975C8.75396 55.8346 8.90315 56.2028 18.8482 55.9429L21.0138 58.1928C20.7893 61.484 20.8998 64.7895 21.3435 68.0584L21.6226 68.696L28.8245 71.8434C29.8712 72.2814 30.2346 72.4378 36.9721 65.1059L40.0087 65.1444C46.9748 72.5797 47.331 72.4354 48.3488 72.0239L54.9876 69.3409C56.0368 68.9246 56.4025 68.7779 55.9814 58.6668V58.6668ZM27.4481 42.9684C26.6085 40.774 26.4356 38.3806 26.9512 36.0883C27.4668 33.7961 28.6479 31.7071 30.3463 30.0836C32.0447 28.4601 34.1847 27.3744 36.4979 26.9626C38.811 26.5509 41.1943 26.8314 43.3486 27.7691C45.5029 28.7068 47.3323 30.2599 48.6072 32.2334C49.8821 34.2069 50.5458 36.513 50.515 38.8624C50.4841 41.2117 49.7602 43.4996 48.4339 45.439C47.1076 47.3784 45.238 48.8828 43.0599 49.7637C40.088 50.9258 36.7767 50.8633 33.8508 49.5897C30.9249 48.3162 28.6227 45.9354 27.4481 42.9684V42.9684Z" fill="white"/>
</svg>
