<svg width="35" height="35" viewBox="0 0 35 35" fill="none" xmlns="http://www.w3.org/2000/svg">
<path d="M17.5 34.5625C8.07754 34.5625 0.4375 26.9225 0.4375 17.5C0.4375 8.07754 8.07754 0.4375 17.5 0.4375C26.9225 0.4375 34.5625 8.07754 34.5625 17.5C34.5625 26.9225 26.9225 34.5625 17.5 34.5625ZM22.9882 17.2372L14.6702 11.1854C14.6246 11.1526 14.5709 11.133 14.5149 11.1288C14.4589 11.1246 14.4028 11.1359 14.3528 11.1615C14.3028 11.1871 14.2609 11.2259 14.2315 11.2738C14.2022 11.3217 14.1866 11.3768 14.1865 11.4329V23.529C14.1863 23.5853 14.2017 23.6405 14.231 23.6885C14.2603 23.7366 14.3023 23.7756 14.3524 23.8012C14.4025 23.8269 14.4587 23.8381 14.5148 23.8338C14.5709 23.8294 14.6247 23.8096 14.6702 23.7766L22.9882 17.7285C23.0275 17.7007 23.0595 17.6639 23.0817 17.6212C23.1038 17.5784 23.1153 17.531 23.1153 17.4829C23.1153 17.4347 23.1038 17.3873 23.0817 17.3446C23.0595 17.3018 23.0275 17.265 22.9882 17.2372V17.2372Z" fill="white"/>
</svg>
