<svg width="53" height="53" viewBox="0 0 53 53" fill="none" xmlns="http://www.w3.org/2000/svg">
<path d="M46.3308 5.65332C44.9159 4.25474 43.0557 3.39611 41.0734 3.22666C39.0912 3.05722 37.1123 3.58767 35.4805 4.72582C40.7257 6.90967 45.0106 10.9071 47.5527 15.9883C48.534 14.3771 48.9469 12.4834 48.7254 10.6099C48.5039 8.73646 47.6608 6.9913 46.3308 5.65332Z" fill="white"/>
<path d="M16.8128 5.04972C15.1878 3.75913 13.1466 3.108 11.0745 3.2192C9.00232 3.3304 7.04255 4.19625 5.56502 5.65333C4.09968 7.12836 3.23182 9.09334 3.12854 11.1699C3.02525 13.2465 3.69384 15.2879 5.00557 16.9011C7.3678 11.6453 11.5659 7.43155 16.8128 5.04972Z" fill="white"/>
<path d="M24.1445 6.02139C20.3007 6.47042 16.6609 7.99252 13.6418 10.4135C10.6227 12.8345 8.34612 16.0566 7.07269 19.711C5.79925 23.3654 5.58037 27.3045 6.44111 31.0775C7.30184 34.8505 9.20741 38.305 11.9397 41.0456L8.18557 44.7997C8.04927 44.9389 7.94172 45.1036 7.86906 45.2844C7.79641 45.4651 7.76007 45.6584 7.76212 45.8533C7.76417 46.0481 7.80457 46.2406 7.88101 46.4198C7.95746 46.599 8.06845 46.7613 8.20765 46.8976C8.34685 47.0339 8.51154 47.1415 8.6923 47.2141C8.87307 47.2868 9.06637 47.3231 9.26118 47.3211C9.45599 47.319 9.64849 47.2786 9.82769 47.2022C10.0069 47.1258 10.1693 47.0148 10.3056 46.8756L14.2217 42.9594C17.8029 45.6695 22.1762 47.1261 26.6672 47.1049C31.1581 47.0836 35.5174 45.5855 39.0728 42.8417L43.1067 46.8756C43.3883 47.1167 43.7506 47.2428 44.1211 47.2285C44.4916 47.2142 44.8431 47.0606 45.1053 46.7984C45.3675 46.5362 45.5211 46.1847 45.5354 45.8142C45.5497 45.4436 45.4237 45.0814 45.1825 44.7997L41.2222 40.8983C44.1941 37.8541 46.1511 33.9648 46.8248 29.7641C47.4984 25.5635 46.8557 21.2572 44.9848 17.4364C43.1139 13.6155 40.1064 10.4672 36.3751 8.42342C32.6438 6.37967 28.3715 5.54061 24.1445 6.02139ZM28.8261 44.0194C25.167 44.4987 21.4497 43.8201 18.196 42.0788C14.9423 40.3376 12.3156 37.6212 10.6845 34.3109C9.0534 31.0006 8.49988 27.2626 9.10162 23.6217C9.70337 19.9807 11.4302 16.6196 14.0396 14.0102C16.6491 11.4007 20.0102 9.67391 23.6511 9.07217C27.2921 8.47042 31.03 9.02394 34.3403 10.655C37.6506 12.2861 40.367 14.9129 42.1083 18.1666C43.8495 21.4203 44.5281 25.1376 44.0489 28.7967C43.5433 32.6568 41.7769 36.2418 39.0241 38.9946C36.2712 41.7474 32.6862 43.5139 28.8261 44.0194Z" fill="white"/>
<path d="M36.6878 29.945L27.7661 25.5283V13.9861C27.7661 13.6347 27.6265 13.2977 27.378 13.0492C27.1295 12.8007 26.7925 12.6611 26.4411 12.6611C26.0897 12.6611 25.7527 12.8007 25.5042 13.0492C25.2557 13.2977 25.1161 13.6347 25.1161 13.9861V27.2361L35.51 32.3889C35.8263 32.5431 36.1908 32.5654 36.5235 32.4508C36.8562 32.3362 37.1298 32.0942 37.284 31.7779C37.4383 31.4616 37.4605 31.0971 37.3459 30.7644C37.2314 30.4317 36.9893 30.1581 36.673 30.0039L36.6878 29.945Z" fill="white"/>
</svg>
